<?xml version="1.0" encoding="UTF-8"?><svg id="Ebene_1" xmlns="http://www.w3.org/2000/svg" viewBox="0 0 258 258"><defs><style>.cls-1{fill:#fff;}</style></defs><rect y="2" width="258" height="232"/><g><path class="cls-1" d="M45.48,39.63h-5.55v22.65h5.5c5.8,0,10.65-3.6,10.65-11.3s-4.8-11.35-10.6-11.35Z"/><path class="cls-1" d="M158.78,58.73v-1.1l-5.55,.85c-1.7,.25-3.05,1.2-3.05,3.1,0,1.45,1.05,2.85,3.2,2.85,2.8,0,5.4-1.35,5.4-5.7Z"/><path class="cls-1" d="M93.33,49.43c-3.3,0-5.9,2.4-5.9,6.2s2.45,6.25,5.9,6.25,5.8-2.45,5.8-6.25-2.6-6.2-5.8-6.2Z"/><path class="cls-1" d="M0,0V258H258V0H0ZM171.98,32.48h6.65v36.2h-6.65V32.48Zm-56.35-.6c2.3,0,4.1,1.85,4.1,4.15s-1.8,4.05-4.1,4.05-4.1-1.85-4.1-4.05,1.85-4.15,4.1-4.15Zm3.35,12.2v24.6h-6.65v-24.6h6.65Zm-46.95-12.2c2.3,0,4.1,1.85,4.1,4.15s-1.8,4.05-4.1,4.05-4.1-1.85-4.1-4.05,1.85-4.15,4.1-4.15Zm3.35,12.2v24.6h-6.65v-24.6h6.65Zm-30.8,74.35c-9.4,0-13.55-6.05-14.1-11.1l6.4-1.7c.3,3.5,2.75,6.65,7.75,6.65,3.7,0,5.75-1.85,5.75-4.35,0-2.05-1.55-3.65-4.3-4.2l-4.95-1c-5.65-1.15-9.3-4.8-9.3-10.15,0-6.3,5.65-11.1,12.35-11.1,8.6,0,11.9,5.2,12.7,9.2l-6.2,1.9c-.35-1.95-1.95-5-6.45-5-3.35,0-5.55,2.15-5.55,4.5,0,1.95,1.25,3.5,3.85,4l4.95,.95c6.45,1.25,9.9,5.45,9.9,10.45,0,5.45-4.55,10.95-12.8,10.95Zm1.1-49.75h-12.65V33.23h12.7c10.1,0,17.5,6.55,17.5,17.75s-7.45,17.7-17.55,17.7Zm39.15,38.45h-17.6c.15,3.25,2.9,5.6,6.2,5.6,3.1,0,4.8-1.55,5.6-3.75l5.55,1.65c-1.25,4.25-5.15,7.8-11.2,7.8-6.75,0-12.7-4.85-12.7-13.15,0-7.85,5.8-12.95,12.1-12.95,7.6,0,12.15,4.85,12.15,12.75,0,.95-.1,1.95-.1,2.05Zm20.35-7.45c-.75-.15-1.4-.2-2-.2-3.4,0-6.35,1.65-6.35,6.95v11.25h-6.65v-24.6h6.45v3.65c1.5-3.25,4.9-3.85,7-3.85,.55,0,1.05,.05,1.55,.1v6.7Zm.4-33.65c0,6.75-3.65,12.9-12.9,12.9-6.75,0-11.25-4.2-11.95-8.9l6-1.6c.45,2.7,2.6,4.65,5.75,4.65,4.2,0,6.55-2.1,6.55-6.85v-1.8c-1,1.6-3.3,3.15-6.85,3.15-6.55,0-11.45-5.05-11.45-11.95,0-6.5,4.7-12,11.45-12,3.9,0,6.15,1.7,7,3.35v-2.9h6.4v21.95Zm18.7,51.65h-6.65l-10.05-24.6h7.3l6.1,16.5,5.85-16.5h7l-9.55,24.6Zm3.4-56.25v-11.45h-4.45v-5.9h1.25c2.6,0,3.8-1.7,3.8-3.9v-3.45h6v7.35h4.95v5.9h-4.95v10.3c0,2.15,1,2.85,2.9,2.85,.8,0,1.7-.1,2.05-.2v5.5c-.6,.25-1.8,.6-3.75,.6-4.8,0-7.8-2.85-7.8-7.6Zm16.85,56.25h-6.65v-24.6h6.65v24.6Zm-3.35-28.6c-2.25,0-4.1-1.85-4.1-4.05s1.85-4.15,4.1-4.15,4.1,1.85,4.1,4.15-1.8,4.05-4.1,4.05Zm2.35-27.1c0-4.4,3.25-6.85,7.35-7.45l6.05-.9c1.4-.2,1.85-.9,1.85-1.75,0-1.75-1.35-3.2-4.15-3.2s-4.5,1.85-4.7,4l-5.9-1.25c.4-3.85,3.95-8.1,10.55-8.1,7.8,0,10.7,4.4,10.7,9.35v12.1c0,1.3,.15,3.05,.3,3.9h-6.1c-.15-.65-.25-2-.25-2.95-1.25,1.95-3.6,3.65-7.25,3.65-5.25,0-8.45-3.55-8.45-7.4Zm19.2,56.45c-7.25,0-12.95-5.5-12.95-13.05s5.6-13.05,12.75-13.05c6.7,0,10.5,4.15,11.55,8.3l-5.95,2c-.6-2.05-2.15-4.15-5.45-4.15s-6.25,2.45-6.25,6.9,2.9,6.95,6.3,6.95,5.1-2.25,5.65-4.15l5.85,1.95c-1.1,4.1-4.95,8.3-11.5,8.3Zm38.45-11.3h-17.6c.15,3.25,2.9,5.6,6.2,5.6,3.1,0,4.8-1.55,5.6-3.75l5.55,1.65c-1.25,4.25-5.15,7.8-11.2,7.8-6.75,0-12.7-4.85-12.7-13.15,0-7.85,5.8-12.95,12.1-12.95,7.6,0,12.15,4.85,12.15,12.75,0,.95-.1,1.95-.1,2.05Z"/><path class="cls-1" d="M189.23,97.73c-3.45,0-5.35,2.6-5.5,4.85h11c-.1-2.45-1.7-4.85-5.5-4.85Z"/><path class="cls-1" d="M72.88,97.73c-3.45,0-5.35,2.6-5.5,4.85h11c-.1-2.45-1.7-4.85-5.5-4.85Z"/></g></svg>