<svg xmlns="http://www.w3.org/2000/svg" width="280" height="167" fill="none"><g clip-path="url(#a)"><path fill="#79A390" d="M214.375 165.111c-3.584-3.021-5.762-7.795-5.191-12.442.571-4.647 4.108-8.919 8.696-9.906 4.588-.987 9.817 1.745 11.211 6.215.767-8.619 1.65-17.6 6.244-24.94 4.159-6.647 11.364-11.402 19.172-12.253 7.807-.851 16.028 2.362 20.897 8.51 4.87 6.148 6.062 15.086 2.652 22.144-2.513 5.2-7.141 9.069-11.991 12.217a77.535 77.535 0 0 1-52.928 11.551l1.238-1.096Z"/><path fill="#fff" d="M267.682 114.326a126.408 126.408 0 0 0-17.645 17.479 126.584 126.584 0 0 0-19.874 33.133c-.358.874 1.066 1.255 1.42.39a125.998 125.998 0 0 1 37.14-49.964c.736-.597-.312-1.631-1.041-1.038Z"/><path fill="#79A390" d="M90.136 164.29c4.924-4.15 7.915-10.707 7.13-17.09-.784-6.382-5.642-12.25-11.943-13.606-6.301-1.355-13.484 2.397-15.398 8.538-1.053-11.839-2.267-24.174-8.576-34.256-5.713-9.13-15.608-15.661-26.332-16.83C24.291 89.877 13 94.291 6.313 102.735c-6.688 8.444-8.326 20.72-3.641 30.415 3.45 7.141 9.808 12.456 16.469 16.78 21.25 13.795 47.612 19.548 72.696 15.866"/><path fill="#fff" d="M16.919 94.536a173.682 173.682 0 0 1 24.235 24.009 175.931 175.931 0 0 1 19.113 28.218 175.084 175.084 0 0 1 8.185 17.289c.491 1.201-1.465 1.725-1.95.536a172.064 172.064 0 0 0-15.774-29.771 173.414 173.414 0 0 0-21.154-26.071 173.212 173.212 0 0 0-14.086-12.783c-1.01-.82.43-2.24 1.43-1.427Z"/><path fill="#97CCB4" d="M176.529 166.635H83.518V46.395a45.962 45.962 0 0 1 9.528-28.134 46.434 46.434 0 0 1 9.898-9.584c.212-.154.425-.306.641-.457a46.451 46.451 0 0 1 10.775-5.523A46.434 46.434 0 0 1 124.372.342c.212-.03.429-.052.646-.074a47.194 47.194 0 0 1 10.011 0 46.45 46.45 0 0 1 10.658 2.43 46.324 46.324 0 0 1 11.303 5.896 46.95 46.95 0 0 1 5.917 4.996 46.407 46.407 0 0 1 4.095 4.672 45.958 45.958 0 0 1 9.527 28.133v120.24Z"/><path fill="#4E596A" d="M168.966 112.856c2.844 0 5.149-2.3 5.149-5.137a5.142 5.142 0 0 0-5.149-5.137 5.143 5.143 0 0 0-5.15 5.137 5.144 5.144 0 0 0 5.15 5.137Z"/><path fill="#FFB8B8" d="M191.366 163.033h-3.946l-1.877-15.182h5.824l-.001 15.182Z"/><path fill="#2F2E41" d="M184.602 161.908h7.609v4.78h-12.4a4.764 4.764 0 0 1 1.403-3.38 4.788 4.788 0 0 1 3.388-1.4Z"/><path fill="#FFB8B8" d="M210.997 163.033h-3.946l-1.877-15.182h5.823v15.182Z"/><path fill="#2F2E41" d="M204.233 161.908h7.609v4.78h-12.401a4.765 4.765 0 0 1 1.404-3.38 4.788 4.788 0 0 1 3.388-1.4Z"/><path fill="#FFB8B8" d="M171.571 108.736a3.45 3.45 0 0 1-.464-2.881 3.443 3.443 0 0 1 1.916-2.205l13.413-36.88 6.6 3.593-15.315 35.244a3.461 3.461 0 0 1-1.681 4.29 3.486 3.486 0 0 1-4.469-1.161ZM208.983 115.666a3.447 3.447 0 0 1-.931-5.206l-4.156-39.013 7.511.342 1.727 38.374a3.466 3.466 0 0 1 .375 4.591 3.482 3.482 0 0 1-4.526.912ZM197 59.938c4.366 0 7.905-3.53 7.905-7.886 0-4.355-3.539-7.886-7.905-7.886-4.365 0-7.904 3.531-7.904 7.886s3.539 7.886 7.904 7.886Z"/><path fill="#004B76" d="M208.931 106.793H185.1l.028-.185c.043-.276 4.248-27.753 1.147-36.742a3.783 3.783 0 0 1 1.953-4.682c4.432-2.082 12.94-4.646 20.121 1.576a9.056 9.056 0 0 1 3.045 7.512l-2.463 32.521Z"/><path fill="#004B76" d="m189.678 82.916-10.729-2.172 5.029-11.889a4.497 4.497 0 0 1 2.076-2.74 4.515 4.515 0 0 1 3.41-.477 4.502 4.502 0 0 1 2.751 2.064 4.487 4.487 0 0 1 .487 3.4l-3.024 11.814ZM203.419 86.948l-.645-14.75c-.489-2.773 1.102-5.394 3.549-5.823 2.448-.427 4.838 1.496 5.329 4.29l2.424 13.782-10.657 2.501Z"/><path fill="#2F2E41" d="M208.139 105.027c3.834 14.569 4.252 33.093 3.218 53.298l-5.15-.642-9.333-38.529-5.149 39.171-5.793-.321c-1.731-21.2-3.416-39.4-.644-51.371l22.851-1.606ZM202.209 58.147c-1.475 1.567-4.214.725-4.406-1.415a2.605 2.605 0 0 1 .003-.5c.1-.948.649-1.81.517-2.81a1.479 1.479 0 0 0-.27-.69c-1.175-1.57-3.934.702-5.043-.72-.68-.87.12-2.243-.402-3.217-.689-1.285-2.729-.65-4.008-1.355-1.424-.783-1.339-2.962-.402-4.287 1.143-1.616 3.146-2.478 5.125-2.603 1.979-.124 3.943.41 5.791 1.128 2.098.816 4.18 1.943 5.471 3.784 1.571 2.24 1.722 5.25.936 7.867-.477 1.593-2.108 3.538-3.312 4.818Z"/><path fill="#3F3D56" d="M270.34 166.841H32.728a.38.38 0 0 1-.382-.382.383.383 0 0 1 .382-.382H270.34a.382.382 0 0 1 0 .764Z"/><path fill="#fff" d="M150.943 131.798h-41.839a2.083 2.083 0 0 1-1.473-.598 2.073 2.073 0 0 1-.619-1.461V36.574c.004-.55.227-1.075.619-1.461a2.083 2.083 0 0 1 1.473-.598h41.839a2.077 2.077 0 0 1 2.092 2.06v93.164a2.077 2.077 0 0 1-2.092 2.059Z"/><path fill="#CCC" d="M153.035 64.66h-46.023v.642h46.023v-.642ZM153.195 101.297h-46.023v.642h46.023v-.642Z"/><path fill="#CCC" d="M122.138 34.515h-.644v97.604h.644V34.515ZM138.23 34.515h-.644v97.604h.644V34.515Z"/></g><defs><clipPath id="a"><path fill="#fff" d="M0 0h280v167H0z"/></clipPath></defs></svg>